<?xml version="1.0" encoding="UTF-8" ?>
<!DOCTYPE svg PUBLIC "-//W3C//DTD SVG 1.1//EN" "http://www.w3.org/Graphics/SVG/1.1/DTD/svg11.dtd">
<svg width="512pt" height="512pt" viewBox="0 0 512 512" version="1.1" xmlns="http://www.w3.org/2000/svg">
<g class="laundry-icon">
<path class="laundry-path" fill="currentColor" opacity="1.00" d=" M 63.83 0.00 L 447.94 0.00 C 455.52 0.75 462.87 4.35 467.64 10.36 C 471.94 15.54 474.12 22.28 474.00 28.98 C 474.00 180.35 474.00 331.72 474.00 483.09 C 474.12 490.00 471.75 496.94 467.19 502.16 C 462.46 507.83 455.39 511.17 448.12 512.00 L 64.09 512.00 C 53.47 511.13 43.61 503.98 39.88 493.93 C 37.54 488.25 38.02 482.01 38.00 476.02 C 38.00 327.02 38.00 178.03 38.00 29.03 C 37.78 20.89 41.16 12.71 47.27 7.29 C 51.79 3.09 57.75 0.72 63.83 0.00 M 54.04 27.97 C 53.95 53.33 54.02 78.70 54.01 104.06 C 61.02 104.16 68.05 103.90 75.06 104.18 C 79.36 104.43 82.79 108.75 82.20 113.00 C 81.82 116.97 78.10 120.25 74.10 120.05 C 67.40 120.12 60.70 120.04 54.01 120.07 C 53.99 239.37 54.01 358.68 53.99 477.98 C 54.09 481.86 53.48 486.06 55.48 489.59 C 57.63 493.77 62.35 496.23 67.00 496.00 C 193.00 496.00 319.00 496.00 445.00 496.00 C 452.10 496.57 458.54 490.16 457.99 483.06 C 458.01 362.06 458.00 241.06 458.00 120.07 C 340.99 120.06 223.98 120.07 106.97 120.07 C 102.46 120.51 98.15 116.62 98.30 112.06 C 98.18 107.54 102.43 103.73 106.89 104.09 C 223.93 104.04 340.96 104.09 457.99 104.06 C 457.97 78.67 458.06 53.28 457.95 27.89 C 458.01 21.16 451.69 15.49 445.03 16.00 C 319.01 16.00 192.99 16.00 66.97 16.00 C 60.28 15.48 53.93 21.21 54.04 27.97 Z" />
<path class="laundry-path" fill="currentColor" opacity="1.00" d=" M 323.40 28.65 C 338.77 25.15 355.59 34.96 360.18 50.02 C 365.46 64.95 357.57 82.86 343.04 89.11 C 329.09 95.83 310.89 90.36 302.84 77.17 C 294.28 64.36 297.01 45.66 308.86 35.81 C 312.98 32.22 318.05 29.75 323.40 28.65 M 325.38 44.62 C 317.66 46.75 312.32 55.18 314.13 63.07 C 315.57 71.80 325.18 77.89 333.71 75.49 C 342.15 73.57 347.73 64.06 345.20 55.76 C 343.12 47.41 333.60 42.04 325.38 44.62 Z" />
<path class="laundry-path" fill="currentColor" opacity="1.00" d=" M 403.37 28.66 C 418.75 25.14 435.58 34.94 440.17 50.00 C 445.36 64.67 437.87 82.29 423.74 88.78 C 410.18 95.70 392.19 91.00 383.67 78.41 C 374.84 66.40 376.22 48.33 386.77 37.79 C 391.21 33.15 397.09 29.95 403.37 28.66 M 405.38 44.62 C 397.66 46.75 392.32 55.17 394.13 63.06 C 395.56 71.75 405.08 77.84 413.58 75.52 C 422.07 73.66 427.74 64.13 425.21 55.78 C 423.14 47.42 413.61 42.04 405.38 44.62 Z" />
<path class="laundry-path" fill="currentColor" opacity="1.00" d=" M 75.39 36.45 C 76.56 36.12 77.77 35.97 78.99 36.00 C 123.69 36.00 168.38 36.00 213.07 36.00 C 217.60 35.51 222.07 39.26 221.96 43.90 C 222.03 54.63 222.03 65.36 221.95 76.09 C 222.07 80.75 217.57 84.49 213.02 84.00 C 168.33 84.00 123.64 84.00 78.95 84.00 C 74.41 84.48 69.91 80.74 70.04 76.09 C 69.97 65.38 69.97 54.66 70.04 43.95 C 69.98 40.63 72.25 37.48 75.39 36.45 M 86.00 52.00 C 86.00 57.33 86.00 62.67 86.00 68.00 C 126.00 68.00 166.00 68.00 206.00 68.00 C 206.00 62.67 206.00 57.33 206.00 52.00 C 166.00 52.00 126.00 52.00 86.00 52.00 Z" />
<path class="laundry-path" fill="currentColor" opacity="1.00" d=" M 247.41 52.62 C 255.21 51.65 263.17 52.48 271.03 52.18 C 274.64 51.81 278.67 53.21 280.23 56.71 C 282.71 61.35 279.27 67.70 274.02 68.08 C 266.35 68.36 258.67 68.12 250.99 68.20 C 247.80 68.42 244.48 66.96 242.95 64.07 C 240.48 59.93 242.79 54.00 247.41 52.62 Z" />
<path class="laundry-path" fill="currentColor" opacity="1.00" d=" M 247.30 155.47 C 275.56 153.81 304.25 160.20 329.02 173.94 C 356.34 188.92 378.85 212.48 392.52 240.47 C 406.57 268.95 411.20 301.90 405.74 333.17 C 399.79 368.25 380.85 400.87 353.54 423.64 C 327.80 445.39 294.64 458.13 260.95 459.08 C 228.24 460.24 195.27 450.38 168.58 431.43 C 145.79 415.38 127.50 392.98 116.45 367.38 C 103.91 338.57 100.78 305.82 107.43 275.12 C 113.89 244.85 130.01 216.78 152.75 195.79 C 178.30 171.90 212.36 157.37 247.30 155.47 M 247.36 171.50 C 223.03 173.00 199.16 181.25 179.11 195.12 C 154.94 211.66 136.34 236.19 127.06 263.98 C 117.38 292.66 117.70 324.59 127.98 353.06 C 137.73 380.35 156.52 404.26 180.63 420.31 C 201.37 434.24 226.06 442.20 251.02 443.08 C 277.11 444.08 303.45 437.36 325.81 423.85 C 354.82 406.54 376.97 378.08 386.43 345.63 C 394.75 317.59 393.67 286.85 383.33 259.49 C 372.37 230.12 350.86 204.86 323.66 189.28 C 300.72 175.97 273.80 169.78 247.36 171.50 Z" />
<path class="laundry-path" fill="currentColor" opacity="1.00" d=" M 191.17 206.18 C 211.78 192.91 236.53 186.22 261.02 187.30 C 282.63 188.19 303.99 195.05 321.99 207.06 C 326.33 209.71 326.72 216.57 322.74 219.72 C 319.81 222.39 315.25 222.09 312.20 219.79 C 291.93 206.61 266.95 200.98 242.98 204.04 C 216.31 207.30 191.18 221.44 174.56 242.55 C 158.90 262.12 150.83 287.50 152.13 312.52 C 165.88 307.54 180.36 304.44 194.99 303.86 C 208.15 303.23 221.32 304.91 234.19 307.62 C 254.89 312.02 274.16 321.35 294.93 325.51 C 315.86 330.06 337.82 329.51 358.58 324.25 C 363.44 295.65 355.59 265.15 337.35 242.57 C 335.82 240.56 333.86 238.62 333.60 235.98 C 333.09 232.53 335.17 228.93 338.39 227.61 C 341.41 226.27 345.22 227.09 347.39 229.59 C 367.10 252.42 377.41 283.00 375.83 313.09 C 374.72 337.02 366.14 360.51 351.64 379.58 C 334.90 401.74 310.25 417.86 283.14 424.05 C 258.44 429.85 231.91 427.50 208.63 417.38 C 179.12 404.88 155.26 379.90 143.90 349.95 C 134.23 324.85 133.44 296.48 141.61 270.86 C 149.92 244.39 167.82 221.12 191.17 206.18 M 154.28 328.89 C 157.09 341.97 162.44 354.49 169.97 365.56 C 182.31 360.08 194.59 354.26 207.68 350.74 C 220.28 347.04 233.50 345.76 246.59 346.55 C 278.72 348.22 310.20 356.58 340.10 368.18 C 346.06 360.14 350.65 351.15 354.08 341.76 C 330.24 346.38 305.38 345.33 281.99 338.88 C 264.17 334.26 247.25 326.60 229.18 322.92 C 218.30 320.72 207.18 319.35 196.06 319.80 C 181.76 320.47 167.57 323.57 154.28 328.89 M 218.96 364.47 C 205.46 367.21 192.83 372.85 180.35 378.49 C 200.13 399.63 229.01 411.88 257.98 411.16 C 284.39 410.77 310.38 399.71 329.10 381.10 C 307.14 372.99 284.37 366.86 261.13 363.85 C 247.15 362.25 232.79 361.25 218.96 364.47 Z" />
</g>
</svg> 