<?xml version="1.0" encoding="utf-8"?>
<!-- Generator: Adobe Illustrator 23.0.3, SVG Export Plug-In . SVG Version: 6.00 Build 0)  -->
<svg version="1.1" id="Layer_1" xmlns="http://www.w3.org/2000/svg" xmlns:xlink="http://www.w3.org/1999/xlink" x="0px" y="0px"
	 viewBox="0 0 70.87 70.02" style="enable-background:new 0 0 70.87 70.02;" xml:space="preserve">
<style type="text/css">
	.st0{fill:none;stroke:#2DB2BF;stroke-width:2;}
	.st1{fill:none;stroke:#2DB2BF;stroke-width:2;stroke-dasharray:3.8619,3.8619;}
</style>
<g>
	<line class="st0" x1="12.25" y1="58.83" x2="12.25" y2="22.62"/>
	<line class="st0" x1="28" y1="22.62" x2="28" y2="37.7"/>
	<rect x="11.8" y="17.65" class="st0" width="16.65" height="5.67"/>
	<g>
		<g>
			<line class="st0" x1="14.82" y1="28.11" x2="16.93" y2="28.11"/>
			<line class="st0" x1="19.03" y1="28.11" x2="21.14" y2="28.11"/>
			<line class="st0" x1="23.25" y1="28.11" x2="25.36" y2="28.11"/>
		</g>
		<g>
			<line class="st0" x1="14.82" y1="32.97" x2="16.93" y2="32.97"/>
			<line class="st0" x1="19.03" y1="32.97" x2="21.14" y2="32.97"/>
			<line class="st0" x1="23.25" y1="32.97" x2="25.36" y2="32.97"/>
		</g>
		<g>
			<line class="st0" x1="14.82" y1="37.83" x2="16.93" y2="37.83"/>
		</g>
		<g>
			<line class="st0" x1="14.82" y1="42.69" x2="16.93" y2="42.69"/>
		</g>
		<g>
			<line class="st0" x1="14.82" y1="47.56" x2="16.93" y2="47.56"/>
		</g>
		<g>
			<line class="st0" x1="14.82" y1="52.42" x2="16.93" y2="52.42"/>
		</g>
	</g>
	<line class="st0" x1="45.31" y1="37.47" x2="45.31" y2="22.62"/>
	<line class="st0" x1="61.07" y1="22.62" x2="61.07" y2="58.83"/>
	<rect x="44.86" y="17.65" class="st0" width="16.65" height="5.67"/>
	<g>
		<g>
			<line class="st0" x1="47.88" y1="28.11" x2="49.99" y2="28.11"/>
			<line class="st0" x1="52.1" y1="28.11" x2="54.21" y2="28.11"/>
			<line class="st0" x1="56.32" y1="28.11" x2="58.43" y2="28.11"/>
		</g>
		<g>
			<line class="st0" x1="47.88" y1="32.97" x2="49.99" y2="32.97"/>
			<line class="st0" x1="52.1" y1="32.97" x2="54.21" y2="32.97"/>
			<line class="st0" x1="56.32" y1="32.97" x2="58.43" y2="32.97"/>
		</g>
		<g>
			<line class="st0" x1="56.32" y1="37.83" x2="58.43" y2="37.83"/>
		</g>
		<g>
			<line class="st0" x1="56.32" y1="42.69" x2="58.43" y2="42.69"/>
		</g>
		<g>
			<line class="st0" x1="56.32" y1="47.56" x2="58.43" y2="47.56"/>
		</g>
		<g>
			<line class="st0" x1="56.32" y1="52.42" x2="58.43" y2="52.42"/>
		</g>
	</g>
	<line class="st0" x1="65.02" y1="58.83" x2="7.1" y2="58.83"/>
	<rect x="19.33" y="37.75" class="st0" width="33.54" height="21.07"/>
	<polyline class="st0" points="24.84,58.76 24.84,48.63 48.5,48.63 48.5,58.76 	"/>
	<line class="st0" x1="23.44" y1="64.14" x2="50.01" y2="64.14"/>
	<line class="st0" x1="18.69" y1="69.47" x2="54.76" y2="69.47"/>
	<line class="st0" x1="36.72" y1="48.11" x2="36.72" y2="58.53"/>
	<line class="st0" x1="52.86" y1="42.85" x2="19.34" y2="42.85"/>
	<g>
		<path class="st0" d="M53.92,12.34c-0.16-0.31-0.33-0.61-0.5-0.9"/>
		<path class="st1" d="M52.36,9.77C48.55,4.23,42.82,0.7,36.42,0.7c-6.71,0-12.68,3.88-16.49,9.89"/>
		<path class="st0" d="M19.42,11.44c-0.17,0.3-0.34,0.6-0.5,0.9"/>
	</g>
</g>
</svg>
