<?xml version="1.0" encoding="utf-8"?>
<!-- Generator: Adobe Illustrator 23.0.3, SVG Export Plug-In . SVG Version: 6.00 Build 0)  -->
<svg version="1.1" id="Layer_1" xmlns="http://www.w3.org/2000/svg" xmlns:xlink="http://www.w3.org/1999/xlink" x="0px" y="0px"
	 viewBox="0 0 73.98 64.06" style="enable-background:new 0 0 73.98 64.06;" xml:space="preserve">
<style type="text/css">
	.st0{fill:none;stroke:#17848E;stroke-width:2;}
	.st1{fill:none;stroke:#17848E;stroke-width:2;stroke-miterlimit:10;}
</style>
<g>
	<line class="st0" x1="17.13" y1="56.18" x2="9" y2="56.18"/>
	<line class="st0" x1="63.3" y1="56.19" x2="20.68" y2="56.19"/>
	<line class="st0" x1="29.39" y1="62.79" x2="9.33" y2="62.79"/>
	<line class="st0" x1="38.37" y1="62.79" x2="33.5" y2="62.79"/>
	<line class="st0" x1="1.24" y1="56.18" x2="4.96" y2="56.18"/>
	<path class="st0" d="M16.11,45.18c-1.42,0.75-3.04,1.17-4.76,1.17c-5.7,0-10.33-4.65-10.33-10.4c0-5.74,4.62-10.4,10.33-10.4"/>
	<g>
		<line class="st0" x1="10.64" y1="31.86" x2="10.64" y2="52.7"/>
		<line class="st0" x1="10.64" y1="40.31" x2="6.16" y2="35.8"/>
	</g>
	<path class="st0" d="M28.02,44.38c-1.16,0.76-2.54,1.2-4.03,1.2l0,0c-4.09,0-7.41-3.34-7.41-7.46V9.01c0-4.12,3.32-7.46,7.41-7.46
		l0,0c4.1,0,7.41,3.34,7.41,7.46v17.19"/>
	<g>
		<line class="st0" x1="23.99" y1="4.47" x2="23.99" y2="52.7"/>
		<line class="st0" x1="23.99" y1="40.31" x2="28.47" y2="35.8"/>
		<line class="st0" x1="23.99" y1="40.31" x2="19.51" y2="35.8"/>
		<line class="st0" x1="23.99" y1="31.7" x2="28.47" y2="27.2"/>
		<line class="st0" x1="23.99" y1="31.7" x2="19.51" y2="27.2"/>
		<line class="st0" x1="23.99" y1="23.1" x2="28.47" y2="18.59"/>
		<line class="st0" x1="23.99" y1="23.1" x2="19.51" y2="18.59"/>
		<line class="st0" x1="23.99" y1="14.49" x2="28.47" y2="9.99"/>
		<line class="st0" x1="23.99" y1="14.5" x2="19.51" y2="9.99"/>
	</g>
	<line class="st0" x1="63.39" y1="46.04" x2="63.39" y2="31.52"/>
	<polyline class="st0" points="33.39,31.52 33.39,50.42 38.09,50.42 38.09,36.77 45.35,36.77 45.35,50.42 55.23,50.42 	"/>
	<line class="st0" x1="38.01" y1="19.18" x2="38.01" y2="26.57"/>
	<path class="st1" d="M59.1,35.27h-9.51v8.53h9.51V35.27L59.1,35.27z"/>
	<polyline class="st0" points="67.29,34.97 48.39,15.94 29.49,34.97 	"/>
	<g>
		<path class="st0" d="M54.69,51.89c0.31-2.14,2.14-3.79,4.36-3.79c0.33,0,0.64,0.04,0.95,0.11c0.99-1.1,2.41-1.79,4-1.79
			c2.54,0,4.66,1.76,5.24,4.14c0,0,0.01,0,0.01,0c1.77,0,3.2,1.44,3.2,3.22c0,0.16-0.02,0.31-0.04,0.46"/>
	</g>
	<path class="st0" d="M64.05,7.1c0,3.3-2.66,5.98-5.94,5.98c-3.28,0-5.94-2.68-5.94-5.98c0-3.3,2.66-5.97,5.94-5.97
		C61.39,1.13,64.05,3.8,64.05,7.1z"/>
</g>
</svg>
