<?xml version="1.0" encoding="utf-8"?>
<!-- Generator: Adobe Illustrator 23.0.3, SVG Export Plug-In . SVG Version: 6.00 Build 0)  -->
<svg version="1.1" id="Layer_1" xmlns="http://www.w3.org/2000/svg" xmlns:xlink="http://www.w3.org/1999/xlink" x="0px" y="0px"
	 viewBox="0 0 75.97 75.97" style="enable-background:new 0 0 75.97 75.97;" xml:space="preserve">
<style type="text/css">
	.st0{fill:none;stroke:#18858F;stroke-width:1.5;stroke-miterlimit:10;}
</style>
<g>
	<polyline class="st0" points="18.67,54.42 16.68,32.41 13.68,32.41 11.56,59.95 	"/>
	<line class="st0" x1="0.21" y1="73.49" x2="76.43" y2="73.49"/>
	<path class="st0" d="M15.3,54.87"/>
	<path class="st0" d="M15.55,73.49"/>
	<polyline class="st0" points="49.48,73.26 49.48,54.98 15.3,54.87 15.06,73.26 	"/>
	<polyline class="st0" points="49.98,62.43 73.56,62.54 73.68,73.6 	"/>
	<polyline class="st0" points="14.93,60.06 2.71,60.17 2.58,73.71 	"/>
	<polygon class="st0" points="18.02,59.78 17.92,63.16 23.63,63.25 23.54,59.78 	"/>
	<polygon class="st0" points="25.78,59.78 25.69,63.16 31.4,63.25 31.3,59.78 	"/>
	<polygon class="st0" points="33.45,59.78 33.36,63.16 39.07,63.25 38.97,59.78 	"/>
	<polygon class="st0" points="41.22,59.78 41.13,63.16 46.83,63.25 46.74,59.78 	"/>
	<path class="st0" d="M36.26,27.02c-4.18,0.68-8.28-1.12-10.01-4.23c-2.09-3.75-0.39-8.8,4.21-11.09"/>
	<path class="st0" d="M36.17,22.79c-0.05,0.28-1.15,6.87,4.58,11.17c5.69,4.27,12.6,2.13,12.91,2.03"/>
	<path class="st0" d="M28.87,13.57c-0.78-4.4,2.37-8.26,6.27-8.8c2.9-0.41,6.01,1.04,7.76,3.64"/>
	<path class="st0" d="M46.46,8.83c0.65-0.57,4.67-4,10.66-3.64c7.6,0.46,11.3,6.58,11.51,6.94"/>
	<path class="st0" d="M48.7,7.81c-0.57-0.54-1.84-1.59-3.84-2.12c-2.78-0.73-5.1,0.07-5.8,0.34"/>
	<polyline class="st0" points="55.16,62.4 57.96,16.02 66.38,16.11 69.85,62.49 	"/>
	<line class="st0" x1="55.81" y1="56.31" x2="69.38" y2="56.31"/>
	<line class="st0" x1="55.81" y1="51.23" x2="68.91" y2="51.14"/>
	<line class="st0" x1="56.28" y1="45.47" x2="68.63" y2="45.56"/>
	<line class="st0" x1="56.28" y1="40.14" x2="67.97" y2="40.14"/>
	<line class="st0" x1="56.94" y1="34.64" x2="67.51" y2="34.81"/>
	<line class="st0" x1="57.12" y1="29.31" x2="67.41" y2="29.39"/>
	<line class="st0" x1="57.59" y1="23.64" x2="66.76" y2="23.64"/>
</g>
</svg>
