<?xml version="1.0" encoding="utf-8"?>
<!-- Generator: Adobe Illustrator 23.0.3, SVG Export Plug-In . SVG Version: 6.00 Build 0)  -->
<svg version="1.1" id="Layer_1" xmlns="http://www.w3.org/2000/svg" xmlns:xlink="http://www.w3.org/1999/xlink" x="0px" y="0px"
	 viewBox="0 0 54.14 49.89" style="enable-background:new 0 0 54.14 49.89;" xml:space="preserve">
<style type="text/css">
	.st0{fill:none;stroke:#15848E;stroke-width:1.5;}
	.st1{fill:none;stroke:#15848E;stroke-width:1.5;stroke-linejoin:round;}
	.st2{fill:none;stroke:#15848E;stroke-width:1.5;stroke-linecap:round;stroke-linejoin:round;}
</style>
<g>
	<g>
		<g>
			<polyline class="st0" points="4.38,9.41 7.23,49.16 30.51,49.16 			"/>
			<line class="st0" x1="32.12" y1="26.69" x2="33.36" y2="9.42"/>
			<polyline class="st0" points="33,14.46 4.74,14.46 6.8,43.23 22.68,43.23 			"/>
			<polyline class="st1" points="4.32,4.58 5.29,0.91 32.45,0.91 33.43,4.58 			"/>
			<rect x="3.02" y="4.33" class="st1" width="31.71" height="5.04"/>
			<g>
				<line class="st0" x1="10.46" y1="46.3" x2="10.46" y2="48.92"/>
				<line class="st0" x1="14.46" y1="46.3" x2="14.46" y2="48.92"/>
			</g>
		</g>
		<path class="st2" d="M20.84,34.43c-0.62,0.22-1.28,0.35-1.97,0.35c-3.39,0-6.15-2.97-6.15-6.63s2.75-6.63,6.15-6.63
			c3.04,0,5.56,2.38,6.06,5.51"/>
	</g>
	<g>
		<path class="st0" d="M45.63,30.81c0.5-0.26,1.07-0.41,1.67-0.41c2.13,0,3.85,1.87,3.85,4.16c0,2.3-1.73,4.16-3.85,4.16
			c-0.53,0-1.04-0.12-1.5-0.32"/>
		<path class="st2" d="M18.67,47.78c0,0.76,3.51,1.39,7.84,1.39h13.44c4.33,0,7.84-0.63,7.84-1.39v-1.73H18.67V47.78z"/>
		<path class="st0" d="M38.94,27.04H27.52h-6.7v10.58c0,4.68,3.51,8.47,7.84,8.47h6.7H31.1h6.7c4.34,0,7.84-3.79,7.84-8.47V27.04
			H38.94z"/>
		<path class="st0" d="M41.4,37.02v-9.9"/>
		<path class="st0" d="M41.41,38.29v1.64"/>
	</g>
</g>
</svg>
