<?xml version="1.0" encoding="utf-8"?>
<!-- Generator: Adobe Illustrator 23.0.3, SVG Export Plug-In . SVG Version: 6.00 Build 0)  -->
<svg version="1.1" id="Layer_1" xmlns="http://www.w3.org/2000/svg" xmlns:xlink="http://www.w3.org/1999/xlink" x="0px" y="0px"
	 viewBox="0 0 54.14 49.89" style="enable-background:new 0 0 54.14 49.89;" xml:space="preserve">
<style type="text/css">
	.st0{fill:none;stroke:#2DB2BF;stroke-width:0.75;}
	.st1{fill:none;stroke:#2DB2BF;stroke-width:0.75;stroke-linejoin:round;}
	.st2{fill:none;stroke:#2DB2BF;stroke-width:0.75;stroke-linecap:round;stroke-linejoin:round;}
</style>
<g>
	<g>
		<g>
			<polyline class="st0" points="4.67,9.08 7.5,49.79 30.64,49.79 			"/>
			<line class="st0" x1="32.24" y1="26.78" x2="33.47" y2="9.09"/>
			<polyline class="st0" points="33.11,14.26 5.03,14.26 7.08,43.71 22.86,43.71 			"/>
			<polyline class="st1" points="4.61,4.14 5.57,0.38 32.57,0.38 33.54,4.14 			"/>
			<rect x="3.32" y="3.88" class="st1" width="31.51" height="5.16"/>
			<g>
				<line class="st0" x1="10.71" y1="46.86" x2="10.71" y2="49.54"/>
				<line class="st0" x1="14.69" y1="46.86" x2="14.69" y2="49.54"/>
			</g>
		</g>
		<path class="st2" d="M21.03,34.7c-0.62,0.23-1.27,0.36-1.96,0.36c-3.37,0-6.11-3.04-6.11-6.79c0-3.75,2.73-6.79,6.11-6.79
			c3.02,0,5.53,2.44,6.02,5.64"/>
	</g>
	<g>
		<path class="st0" d="M45.66,31c0.5-0.27,1.06-0.42,1.66-0.42c2.12,0,3.83,1.91,3.83,4.26c0,2.35-1.72,4.26-3.83,4.26
			c-0.53,0-1.03-0.12-1.49-0.33"/>
		<path class="st2" d="M18.87,48.37c0,0.78,3.49,1.42,7.79,1.42h13.36c4.3,0,7.79-0.64,7.79-1.42v-1.77H18.87V48.37z"/>
		<path class="st0" d="M39.02,27.14H27.67h-6.66v10.83c0,4.79,3.49,8.67,7.79,8.67h6.66h-4.24h6.66c4.31,0,7.79-3.88,7.79-8.67
			V27.14H39.02z"/>
		<path class="st0" d="M41.46,37.35V27.21"/>
		<path class="st0" d="M41.47,38.65v1.68"/>
	</g>
</g>
</svg>
