<?xml version="1.0" encoding="utf-8"?>
<!-- Generator: Adobe Illustrator 23.0.3, SVG Export Plug-In . SVG Version: 6.00 Build 0)  -->
<svg version="1.1" id="Layer_2" xmlns="http://www.w3.org/2000/svg" xmlns:xlink="http://www.w3.org/1999/xlink" x="0px" y="0px"
	 viewBox="0 0 75.97 45.92" style="enable-background:new 0 0 75.97 45.92;" xml:space="preserve">
<style type="text/css">
	.st0{fill:none;stroke:#2DB2BF;stroke-width:1.75;}
</style>
<g>
	<g>
		<path class="st0" d="M13.59,42.66v0.02c0,1.55-1.27,2.8-2.83,2.8H9.11c-1.56,0-2.83-1.25-2.83-2.8v-2.35"/>
		<path class="st0" d="M38.11,42.97v-0.29c0,1.55-1.27,2.8-2.83,2.8h-1.65c-1.56,0-2.83-1.25-2.83-2.8v-2.51"/>
	</g>
	<path class="st0" d="M39.88,33.18V3.72c0-1.55-1.27-2.8-2.83-2.8H7.34c-1.56,0-2.83,1.25-2.83,2.8v29.14"/>
	<polyline class="st0" points="4.51,37.38 4.51,40.12 39.88,40.12 39.88,37.22 	"/>
	<rect x="4.51" y="10.49" class="st0" width="35.36" height="17.03"/>
	<line class="st0" x1="36.58" y1="6.72" x2="7.81" y2="6.72"/>
	<rect x="3.8" y="33.26" class="st0" width="36.78" height="3.59"/>
	<line class="st0" x1="22.19" y1="10.26" x2="22.19" y2="27.52"/>
	<g>
		<g>
			<polyline class="st0" points="39.52,13.99 43.77,13.99 43.77,20.29 			"/>
		</g>
		<g>
			<polyline class="st0" points="4.86,13.99 0.62,13.99 0.62,20.29 			"/>
		</g>
	</g>
	<g>
		<line class="st0" x1="18.65" y1="15.62" x2="18.65" y2="24.95"/>
		<line class="st0" x1="18.65" y1="20.75" x2="12.05" y2="27.29"/>
	</g>
	<g>
		<line class="st0" x1="25.88" y1="15.62" x2="25.88" y2="24.95"/>
		<line class="st0" x1="25.88" y1="20.75" x2="32.49" y2="27.29"/>
	</g>
	<line class="st0" x1="6.61" y1="30.38" x2="10.07" y2="30.38"/>
	<line class="st0" x1="33.8" y1="30.38" x2="37.26" y2="30.38"/>
</g>
<g>
	<g>
		<path class="st0" d="M46.35,32.06H44.8c-0.59,0-1.07-0.5-1.07-1.11l0,0c0-0.61,0.48-1.11,1.07-1.11h2.73"/>
		<path class="st0" d="M67.88,29.84h2.73c0.59,0,1.07,0.5,1.07,1.11l0,0c0,0.61-0.48,1.11-1.07,1.11h-1.85"/>
	</g>
	<path class="st0" d="M68.65,32.09l-2.13-5.84c-0.08-0.23-0.35-0.42-0.6-0.42H49.48c-0.24,0-0.51,0.19-0.59,0.42l-1.99,5.71"/>
	<g>
		<path class="st0" d="M50.12,42.18v1.51c0,1.16-0.93,2.11-2.08,2.11h-1.21c-1.15,0-2.08-0.94-2.08-2.11v-1.51"/>
		<path class="st0" d="M70.66,41.88v1.82c0,1.16-0.93,2.11-2.08,2.11h-1.21c-1.15,0-2.08-0.94-2.08-2.11v-1.82"/>
	</g>
	<g>
		<path class="st0" d="M68.76,32.01c-0.34-0.31-1-0.56-1.46-0.56H48.11c-0.46,0-1.12,0.25-1.46,0.56l-2.22,1.98
			c-0.34,0.31-0.63,0.94-0.63,1.4v5.65c0,0.46,0.38,0.84,0.83,0.84h26.12c0.46,0,0.83-0.38,0.83-0.84v-5.65
			c0-0.46-0.28-1.1-0.63-1.4L68.76,32.01z"/>
		<path class="st0" d="M68.76,32.01c-0.34-0.31-1-0.56-1.46-0.56H48.11c-0.46,0-1.12,0.25-1.46,0.56l-2.22,1.98
			c-0.34,0.31-0.63,0.94-0.63,1.4v5.65c0,0.46,0.38,0.84,0.83,0.84h26.12c0.46,0,0.83-0.38,0.83-0.84v-5.65
			c0-0.46-0.28-1.1-0.63-1.4L68.76,32.01z"/>
	</g>
	<path class="st0" d="M65.84,41.89v-1.65c0-0.7-0.56-1.27-1.25-1.27H51.24c-0.69,0-1.25,0.57-1.25,1.27v1.65H65.84z"/>
	<g>
		<line class="st0" x1="45.81" y1="35.39" x2="48.04" y2="35.39"/>
		<line class="st0" x1="67.65" y1="35.39" x2="69.59" y2="35.39"/>
	</g>
	<path class="st0" d="M62.5,36.09"/>
	<line class="st0" x1="53.58" y1="36.21" x2="61.82" y2="36.21"/>
</g>
</svg>
