<?xml version="1.0" encoding="utf-8"?>
<!-- Generator: Adobe Illustrator 23.0.3, SVG Export Plug-In . SVG Version: 6.00 Build 0)  -->
<svg version="1.1" id="Layer_1" xmlns="http://www.w3.org/2000/svg" xmlns:xlink="http://www.w3.org/1999/xlink" x="0px" y="0px"
	 viewBox="0 0 56.13 39.97" style="enable-background:new 0 0 56.13 39.97;" xml:space="preserve">
<style type="text/css">
	.st0{fill:#2DB2BF;}
</style>
<g>
	<path class="st0" d="M53.53,21.54l-0.66-3.95c-0.05-0.32-0.17-0.63-0.32-0.92V6.65c0-0.93-0.63-1.96-1.47-2.4
		c-5.96-3.1-13.09-3.1-19.06,0c-0.84,0.44-1.47,1.47-1.47,2.4v10.02c-0.15,0.29-0.26,0.59-0.31,0.92l-0.66,3.95
		c-0.62,0.55-1.03,1.35-1.03,2.24v13.5c0,1.38,1.35,2.5,3,2.5c1.56,0,3.08-1.19,3.45-2.69l0.03-0.12c0.15-0.62,0.88-1.18,1.51-1.18
		h10c0.64,0,1.36,0.56,1.52,1.19l0.03,0.12c0.38,1.51,1.9,2.7,3.46,2.7c1.65,0,3-1.12,3-2.5v-13.5
		C54.56,22.88,54.15,22.09,53.53,21.54z M32.21,17.91c0.1-0.61,0.73-1.14,1.34-1.14h16c0.61,0,1.24,0.53,1.34,1.14l0.48,2.86H31.74
		L32.21,17.91z M46.56,14.78h-10v-3c0-0.55,0.45-1,1-1h8c0.55,0,1,0.45,1,1V14.78z M32.95,6.02c5.39-2.8,11.82-2.8,17.2,0
		c0.19,0.1,0.4,0.46,0.4,0.64v8.3c-0.32-0.11-0.66-0.17-1-0.17h-1v-3c0-1.65-1.35-3-3-3h-8c-1.65,0-3,1.35-3,3v3h-1
		c-0.34,0-0.68,0.07-1,0.17v-8.3C32.56,6.48,32.77,6.12,32.95,6.02z M52.56,37.28c0,0.17-0.39,0.5-1,0.5
		c-0.64,0-1.36-0.56-1.52-1.19l-0.03-0.12c-0.38-1.51-1.9-2.7-3.46-2.7h-10c-1.56,0-3.08,1.19-3.45,2.69l-0.03,0.12
		c-0.15,0.62-0.88,1.18-1.51,1.18c-0.61,0-1-0.33-1-0.5v-13.5c0-0.55,0.45-1,1-1h20c0.55,0,1,0.45,1,1V37.28z"/>
	<path class="st0" d="M13.56,0.78c-7.17,0-13,5.83-13,13s5.83,13,13,13c7.17,0,13-5.83,13-13S20.72,0.78,13.56,0.78z M13.56,24.78
		c-6.07,0-11-4.93-11-11s4.93-11,11-11c6.07,0,11,4.93,11,11S19.62,24.78,13.56,24.78z"/>
	<path class="st0" d="M19.56,12.78h-5v-5c0-0.55-0.45-1-1-1c-0.55,0-1,0.45-1,1v5h-5c-0.55,0-1,0.45-1,1s0.45,1,1,1h5v5
		c0,0.55,0.45,1,1,1c0.55,0,1-0.45,1-1v-5h5c0.55,0,1-0.45,1-1S20.11,12.78,19.56,12.78z"/>
</g>
</svg>
