<?xml version="1.0" encoding="utf-8"?>
<!-- Generator: Adobe Illustrator 23.0.3, SVG Export Plug-In . SVG Version: 6.00 Build 0)  -->
<svg version="1.1" id="Слой_1" xmlns="http://www.w3.org/2000/svg" xmlns:xlink="http://www.w3.org/1999/xlink" x="0px" y="0px"
	 viewBox="0 0 204 168.5" style="enable-background:new 0 0 204 168.5;" xml:space="preserve">
<style type="text/css">
	.st0{fill:none;stroke:#0A838B;stroke-width:0.75;stroke-miterlimit:22.926;}
	.st1{fill-rule:evenodd;clip-rule:evenodd;fill:#0A838B;}
</style>
<g>
	<polyline class="st0" points="196.43,0 196.43,164.99 5.11,164.99 5.11,0 	"/>
</g>
<path class="st1" d="M18.43,56.79v48.05h11.05v-18.6h14.01V75.27H29.5v-7.56h17.12V56.83c-0.18-0.02-0.31-0.05-0.44-0.05
	C36.92,56.78,27.68,56.78,18.43,56.79 M112.61,93.85H95.5v-7.62h12.58V75.27H95.51v-7.61h17.08V56.81H84.51v47.97h28.1V93.85z
	 M146.28,93.84h-17.09v-7.6h12.6V75.28h-12.62v-7.57h17.12V56.84h-28.13v47.92h28.12V93.84z M173.81,104.79V67.75h10.91V56.81
	h-32.88V67.8h10.96v36.99H173.81z M78.91,93.83H63.1V56.81H52.17v47.96h26.75V93.83z M185.02,118.21v-2.02h-19.5v35.85h19.5v-2.01
	h-17.41v-14.91h13.98v-2.04h-13.98v-14.86H185.02z M48.86,135.11h13.98v-2.04H48.85v-14.9h17.34v-1.97H46.77v35.77H66.2v-1.99H48.86
	V135.11z M31.72,133.86c-2.03-0.67-4.11-1.18-6.11-1.91c-2.98-1.09-5.25-2.89-5.71-6.3c-0.44-3.32,0.74-5.94,4.1-7.19
	c3.26-1.22,6.58-0.89,9.85-0.04c1.54,0.4,3.03,1.04,4.59,1.59c0.27-0.55,0.56-1.14,0.87-1.76c-0.15-0.08-0.25-0.15-0.36-0.2
	c-4.6-2.22-9.41-2.98-14.44-1.96c-2.94,0.6-5.29,2.03-6.27,5.07c-0.62,1.92-0.62,3.89-0.19,5.85c0.6,2.72,2.31,4.61,4.67,5.96
	c2.09,1.2,4.41,1.79,6.72,2.42c2.55,0.69,4.96,1.69,6.99,3.44c2.7,2.31,2.97,5.59,0.7,8.31c-1.06,1.27-2.46,2.07-4,2.64
	c-2.87,1.06-5.78,0.78-8.7,0.31c-2.2-0.35-4.34-0.94-6.41-1.88c-0.24,0.65-0.47,1.27-0.69,1.87c0.07,0.07,0.09,0.11,0.13,0.13
	c0.07,0.04,0.15,0.06,0.23,0.09c3.98,1.59,8.12,2.4,12.42,2.22c2.3-0.1,4.5-0.65,6.52-1.86c4.5-2.7,5.64-9.38,1.58-13.15
	C36.32,135.76,34.11,134.65,31.72,133.86 M109,149.69l-9.36-33.49h-2.15c0,0,6.65,23.88,9.97,35.8h3.04
	c3.34-11.94,6.68-23.86,10.03-35.84h-2.15L109,149.69z M146.77,118.41c2.71-0.96,5.5-0.87,8.27-0.38c1.46,0.26,2.87,0.73,4.37,1.12
	c0.19-0.5,0.42-1.08,0.66-1.69c-0.23-0.11-0.43-0.24-0.65-0.3c-1.59-0.45-3.16-1.01-4.77-1.27c-2.31-0.38-4.65-0.38-6.96,0.13
	c-4.31,0.95-7.05,3.66-8.58,7.72c-1.06,2.82-1.45,5.77-1.54,8.76c-0.12,4.22,0.08,8.4,1.56,12.42c1.39,3.76,3.9,6.32,7.9,7.21
	c2.78,0.62,5.59,0.55,8.39,0.1c1.62-0.26,3.17-0.74,4.65-1.48c-0.13-0.33-0.24-0.63-0.36-0.92c-0.11-0.28-0.23-0.57-0.34-0.84
	c-0.12,0.02-0.19,0.01-0.24,0.03c-3.21,1.31-6.56,1.69-10,1.39c-1.96-0.18-3.77-0.74-5.31-2.05c-1.54-1.32-2.43-3.03-3.03-4.91
	c-0.98-3.06-1.19-6.21-1.18-9.39c0.01-3.25,0.26-6.47,1.41-9.54C142.06,121.66,143.81,119.46,146.77,118.41 M128.79,151.99h1.98
	v-35.8h-1.98V151.99z M87.11,138.05c2.56-0.91,4.26-2.68,5.18-5.22c0.92-2.57,0.99-5.22,0.69-7.9c-0.19-1.64-0.64-3.21-1.51-4.63
	c-1.77-2.87-4.51-4-7.7-4.1c-3.28-0.11-6.56-0.03-9.84-0.03c-0.16,0-0.32,0.03-0.48,0.04V152h2.03v-13.3c0.35,0,0.6,0,0.85,0
	c2.48-0.01,6.98-0.08,8.18-0.09c0.04,0.07,7.08,13.4,7.08,13.4s1.55,0.02,2.33,0.02c-2.42-4.66-4.78-9.24-7.16-13.81
	C86.89,138.16,87,138.09,87.11,138.05 M75.51,136.72v-18.51c0.38,0,0.73,0,1.09,0c2.27,0,4.54-0.02,6.81,0.02
	c1.35,0.02,2.67,0.27,3.89,0.89c1.78,0.92,2.82,2.44,3.29,4.32c0.68,2.69,0.69,5.4-0.04,8.09c-0.77,2.83-2.64,4.62-5.51,4.9
	C81.91,136.75,78.72,136.64,75.51,136.72"/>
</svg>
